<svg xmlns="http://www.w3.org/2000/svg" viewBox="0 0 1024 1024" width="1024" height="1024">
<defs><linearGradient id="bgg" x1="0" y1="0" x2="0" y2="1"><stop offset="0" stop-color="#ffffff"/><stop offset="1" stop-color="#f0f0f3"/></linearGradient></defs>
<rect x="48" y="48" width="928" height="928" rx="224" fill="url(#bgg)" stroke="#e2e2e6" stroke-width="2"/>
<svg x="139" y="139" width="372" height="372" viewBox="-0.5 -0.5 889 864" preserveAspectRatio="xMidYMid meet"><g pointer-events="none"><path fill="#41a5ee" d="M839.03 53H263.97C244.11 53 228 69.09 228 88.94v152.74L551.5 336 875 241.68V88.94C875 69.09 858.89 53 839.03 53"/><path fill="#2b7cd3" d="M875 242H228v188.68L551.5 525 875 430.68V242"/><path fill="#185abd" d="M875 431H228v188.68L551.5 714 875 619.68V431"/><path fill="#103f91" d="M875 620H228v152.19c0 19.78 16.11 35.81 35.97 35.81h575.06c19.86 0 35.97-16.03 35.97-35.81V620"/><path fill-opacity=".1" d="M461.14 188H228v512h233.14c19.78-.06 35.8-16.12 35.86-35.94V223.94c-.06-19.82-16.08-35.88-35.86-35.94"/><path fill-opacity=".2" d="M434.16 215H228v512h206.14c19.78-.05 35.8-16.11 35.86-35.94V250.94c-.06-19.83-16.08-35.89-35.86-35.94h.02"/><path fill-opacity=".2" d="M434.16 215H228v458h206.14c19.77-.05 35.78-16.09 35.86-35.91V250.91c-.08-19.82-16.09-35.86-35.86-35.91h.02"/><path fill-opacity=".2" d="M407.16 215H228v458h179.16c19.76-.06 35.76-16.1 35.84-35.91V250.91c-.08-19.81-16.08-35.85-35.84-35.91"/><path fill="#185abd" d="M48.9 215h359.2c19.83 0 35.9 16.07 35.9 35.9v359.2c0 19.83-16.07 35.9-35.9 35.9H48.9C29.07 646 13 629.93 13 610.1V250.9c0-19.83 16.07-35.9 35.9-35.9"/><path fill="#fff" d="M335.04 565H286.5l-56.65-185.61L170.5 565h-48.54L68 296h48.57l37.75 188.3 56.65-182.92h40.45l53.96 182.92L343.13 296H389l-53.96 269"/></g></svg>
<svg x="513" y="139" width="372" height="372" viewBox="-0.5 -0.5 889 864" preserveAspectRatio="xMidYMid meet"><g pointer-events="none"><path fill="#21a366" d="M551.5 53H263.97C244.11 53 228 69.11 228 88.99v152.85l323.5 188.88L713.25 499 875 430.72V241.84L551.5 53"/><path fill="#107c41" d="M228 430h323V242H228v188"/><path fill="#33c481" d="M839.11 53H552v188h323V88.81C875 69.03 858.93 53 839.11 53"/><path fill="#185c37" d="M551.5 431H228v341.11c0 9.52 3.79 18.65 10.54 25.38 6.74 6.73 15.89 10.51 25.43 10.51h575.06c9.54 0 18.69-3.78 25.43-10.51 6.75-6.73 10.54-15.86 10.54-25.38V619.5L551.5 431"/><path fill="#107c41" d="M552 619h323V431H552v188"/><path fill-opacity=".1" d="M461.14 188H228v512h233.14c19.78-.06 35.8-16.12 35.86-35.94V223.94c-.06-19.82-16.08-35.88-35.86-35.94"/><path fill-opacity=".2" d="M434.14 215H228v512h206.14c19.78-.05 35.8-16.11 35.86-35.94V250.94c-.06-19.83-16.08-35.89-35.86-35.94"/><path fill-opacity=".2" d="M434.14 215H228v458h206.14c19.77-.05 35.78-16.09 35.86-35.91V250.91c-.08-19.82-16.09-35.86-35.86-35.91"/><path fill-opacity=".2" d="M407.16 215H228v458h179.16c19.76-.06 35.76-16.1 35.84-35.91V250.91c-.08-19.81-16.08-35.85-35.84-35.91"/><path fill="#107c41" d="M48.9 215h359.2c9.52 0 18.65 3.78 25.38 10.52 6.74 6.73 10.52 15.86 10.52 25.38v359.2c0 9.52-3.78 18.65-10.52 25.38-6.73 6.74-15.86 10.52-25.38 10.52H48.9c-9.52 0-18.65-3.78-25.38-10.52C16.78 628.75 13 619.62 13 610.1V250.9c0-9.52 3.78-18.65 10.52-25.38C30.25 218.78 39.38 215 48.9 215"/><path fill="#fff" d="M108 565l87.29-134.88L115.33 296h64.34l43.65 85.73q6.02 12.19 8.29 18.18h.55q4.34-9.73 9.04-18.93L287.86 296h59.07l-82.01 133.37L349 565h-62.83l-50.42-94.18c-2.38-3.99-4.4-8.2-6.02-12.56h-.75c-1.48 4.27-3.43 8.36-5.83 12.19L171.21 565H108"/></g></svg>
<svg x="139" y="513" width="372" height="372" viewBox="-0.5 -0.5 889 864" preserveAspectRatio="xMidYMid meet"><g pointer-events="none"><path fill="#ed6c47" d="M497.29 53C289.17 53.6 120.6 222.17 120 430.29L598 531 497.29 53"/><path fill="#ff8f6b" d="M498 53c207.97.6 376.42 169.35 377 377.68L686.5 559 498 430.68V53"/><path fill="#d35230" d="M497.5 808c208.24-.62 376.9-169.05 377.5-377H120c.6 207.95 169.26 376.38 377.5 377"/><path fill-opacity=".1" d="M462.03 188H209.67C81.78 338.63 92.77 562.6 234.78 700h227.25c19.84-.04 35.91-16.1 35.97-35.94V223.94c-.06-19.84-16.13-35.9-35.97-35.94"/><path fill-opacity=".2" d="M435.09 215H189.25c-115.33 163.73-81.57 389.26 76.64 512h169.2c19.81-.06 35.85-16.12 35.91-35.94V250.94c-.06-19.82-16.1-35.88-35.91-35.94"/><path fill-opacity=".2" d="M435.05 215H189.04c-98.42 139.51-89.91 327.92 20.68 458h225.33c19.82-.06 35.87-16.09 35.95-35.91V250.91c-.08-19.82-16.13-35.85-35.95-35.91"/><path fill-opacity=".2" d="M408.08 215H189.06C90.62 354.5 99.12 542.91 209.7 673h198.38c19.81-.07 35.84-16.1 35.92-35.91V250.91c-.08-19.81-16.11-35.84-35.92-35.91"/><path fill="#c43e1c" d="M48.9 215h359.2c9.52 0 18.65 3.78 25.38 10.52 6.74 6.73 10.52 15.86 10.52 25.38v359.2c0 9.52-3.78 18.65-10.52 25.38-6.73 6.74-15.86 10.52-25.38 10.52H48.9c-9.52 0-18.65-3.78-25.38-10.52C16.78 628.75 13 619.62 13 610.1V250.9c0-9.52 3.78-18.65 10.52-25.38C30.25 218.78 39.38 215 48.9 215"/><path fill="#f9f7f7" d="M227.87 296c26.57-1.78 52.91 5.89 74.34 21.65 17.81 15.84 27.32 38.97 25.79 62.71.3 15.21-4.16 30.14-12.75 42.72-8.76 13.89-21.35 24.97-36.28 31.9-17.05 7.9-35.69 11.8-54.49 11.4h-51.59V565H120V296h107.87m-54.98 125.97h45.54c14.43 1.06 28.74-3.19 40.24-11.94 9.31-5.98 14.55-16.6 13.61-27.6q0-44.63-52.15-44.63h-47.24v84.17"/></g></svg>
<svg x="513" y="513" width="372" height="372" viewBox="-0.5 -0.5 890 877" preserveAspectRatio="xMidYMid meet"><g pointer-events="none"><path fill="#ca64ea" d="M263.97 66h575.06C858.89 66 875 82.09 875 101.94v683.12c0 9.53-3.79 18.67-10.54 25.41-6.74 6.74-15.89 10.53-25.43 10.53H263.97c-19.86 0-35.97-16.09-35.97-35.94V101.94C228 82.09 244.11 66 263.97 66"/><path fill="#ca64ea" d="M875 101.94C875 82.09 858.89 66 839.03 66H263.97C244.11 66 228 82.09 228 101.94v683.12c0 19.85 16.11 35.94 35.97 35.94h422.3L875 254.75V101.94"/><path fill="#ae4bd5" d="M875 255H687v188.82L781 530l94-86.18V255"/><path fill="#9332bf" d="M875 444H687v188.55L781 724l94-91.45V444"/><path fill="#7719aa" d="M687.18 633.26H876v152.82c0 19.84-16.11 35.92-35.99 35.92H687.18V633.26"/><path fill-opacity=".1" d="M461.14 201H228v512h233.14c19.78-.06 35.8-16.12 35.86-35.94V236.94c-.06-19.82-16.08-35.88-35.86-35.94"/><path fill-opacity=".2" d="M434.14 228H228v512h206.14c19.78-.05 35.8-16.11 35.86-35.94V263.94c-.06-19.83-16.08-35.89-35.86-35.94"/><path fill-opacity=".3" d="M434.14 228H228v458h206.14c19.77-.05 35.78-16.09 35.86-35.91V263.91c-.08-19.82-16.09-35.86-35.86-35.91"/><path fill-opacity=".2" d="M407.16 228H228v458h179.16c19.76-.06 35.76-16.1 35.84-35.91V263.91c-.08-19.81-16.08-35.85-35.84-35.91"/><path fill="#7719aa" d="M48.9 228h359.2c9.52 0 18.65 3.78 25.38 10.52 6.74 6.73 10.52 15.86 10.52 25.38v359.2c0 9.52-3.78 18.65-10.52 25.38-6.73 6.74-15.86 10.52-25.38 10.52H48.9c-9.52 0-18.65-3.78-25.38-10.52C16.78 641.75 13 632.62 13 623.1V263.9c0-9.52 3.78-18.65 10.52-25.38C30.25 231.78 39.38 228 48.9 228"/><path fill="#fff" d="M120 309h57.25l98.3 181.09q7.68 11.7 11.53 18.83h.73c-1.38-11.84-1.92-23.76-1.64-35.67V309H335v269h-53.6L178.89 399.68c-3.94-5.89-7.43-12.07-10.43-18.48h-.9c1.18 13.02 1.67 26.09 1.46 39.17V578H120V309"/></g></svg>
</svg>